<svg width="66" height="64" viewBox="0 0 66 64" fill="none" xmlns="http://www.w3.org/2000/svg">
<rect width="65.25" height="63.5" rx="31.75" fill="#F42619"/>
<path d="M47.5 42.25V44C47.5 44.9283 47.1313 45.8185 46.4749 46.4749C45.8185 47.1313 44.9283 47.5 44 47.5H19.5C18.5717 47.5 17.6815 47.1313 17.0251 46.4749C16.3687 45.8185 16 44.9283 16 44V19.5C16 18.5717 16.3687 17.6815 17.0251 17.0251C17.6815 16.3687 18.5717 16 19.5 16H44C44.9283 16 45.8185 16.3687 46.4749 17.0251C47.1313 17.6815 47.5 18.5717 47.5 19.5V21.25H31.75C30.8217 21.25 29.9315 21.6187 29.2751 22.2751C28.6187 22.9315 28.25 23.8217 28.25 24.75V38.75C28.25 39.6783 28.6187 40.5685 29.2751 41.2249C29.9315 41.8813 30.8217 42.25 31.75 42.25M31.75 38.75H49.25V24.75H31.75M38.75 34.375C38.0538 34.375 37.3861 34.0984 36.8938 33.6062C36.4016 33.1139 36.125 32.4462 36.125 31.75C36.125 31.0538 36.4016 30.3861 36.8938 29.8938C37.3861 29.4016 38.0538 29.125 38.75 29.125C39.4462 29.125 40.1139 29.4016 40.6062 29.8938C41.0984 30.3861 41.375 31.0538 41.375 31.75C41.375 32.4462 41.0984 33.1139 40.6062 33.6062C40.1139 34.0984 39.4462 34.375 38.75 34.375Z" fill="white"/>
</svg>
